<?xml version="1.0" encoding="utf-8"?>
<svg viewBox="111.855 -57.828 24 23.967" xmlns="http://www.w3.org/2000/svg">
  <g>
    <path style="stroke: rgb(0, 0, 0); stroke-width: 0px; stroke-opacity: 0; stroke-miterlimit: 0; fill: rgb(85, 139, 40);" d="M 132.082 -42.196 L 132.115 -49.884 L 135.838 -51.733 L 135.833 -39.808 L 123.818 -33.861 L 123.875 -38.105 L 132.082 -42.196 Z"/>
    <path style="stroke: rgb(0, 0, 0); stroke-width: 0px; fill: rgb(133, 214, 51); stroke-opacity: 0; stroke-miterlimit: 0;" d="M 123.629 -54.03 L 115.499 -49.879 L 111.862 -51.71 L 123.774 -57.828 L 135.855 -51.754 L 132.139 -49.875 L 123.629 -54.03 Z"/>
    <path style="stroke: rgb(0, 0, 0); stroke-width: 0px; stroke-miterlimit: 0; stroke-opacity: 0; fill: rgb(88, 87, 87);" d="M 123.813 -40.711 L 129.086 -43.285 L 129.086 -43.553 L 132.117 -42.203 L 123.892 -38.09 L 115.557 -42.189 L 118.426 -43.618 L 118.425 -43.332 L 123.813 -40.711 Z"/>
    <path style="stroke: rgb(0, 0, 0); stroke-opacity: 0; stroke-width: 0px; stroke-miterlimit: 0; fill: rgb(226, 196, 0);" d="M 124.559 -48.43 L 119.745 -50.776 L 119.726 -44.781 L 124.559 -48.43 Z" transform="matrix(0.444718, 0.895671, -0.895671, 0.444718, 25.029741, -135.930001)"/>
    <path style="stroke: rgb(0, 0, 0); stroke-opacity: 0; stroke-width: 0px; stroke-miterlimit: 0; fill: rgb(230, 157, 12);" d="M 127.827 -47.155 L 122.892 -44.682 L 122.911 -50.708 L 127.827 -47.155 Z" transform="matrix(-0.444718, 0.895671, -0.895671, -0.444718, 138.390102, -181.186651)"/>
    <path style="stroke: rgb(0, 0, 0); stroke-width: 0px; stroke-miterlimit: 0; stroke-opacity: 0; fill: rgb(70, 69, 69);" d="M 132.106 -45.017 L 126.757 -47.736 L 126.743 -52.734 L 123.734 -54.064 L 123.688 -46.387 L 132.145 -42.191 L 132.106 -45.017 Z" transform="matrix(-1, 0, 0, -1, 255.833008, -96.255001)"/>
    <path style="stroke: rgb(0, 0, 0); stroke-width: 0px; stroke-miterlimit: 0; stroke-opacity: 0; fill: rgb(63, 61, 61);" d="M 123.75 -51.223 L 118.418 -48.613 L 118.434 -43.584 L 115.587 -42.175 L 115.54 -49.9 L 123.708 -54.065 L 123.75 -51.223 Z"/>
    <path style="stroke: rgb(0, 0, 0); stroke-opacity: 0; stroke-width: 0px; stroke-miterlimit: 0; fill: rgb(255, 0, 0);" d="M 123.803 -45.9 L 118.417 -48.617 L 118.417 -43.327 L 123.803 -45.9 Z"/>
    <path style="stroke: rgb(0, 0, 0); stroke-opacity: 0; stroke-width: 0px; stroke-miterlimit: 0; fill: rgb(105, 185, 220);" d="M 129.127 -43.289 L 123.801 -45.911 L 123.801 -40.7 L 129.127 -43.289 Z"/>
    <path style="stroke: rgb(0, 0, 0); stroke-opacity: 0; stroke-width: 0px; stroke-miterlimit: 0; fill: rgb(101, 197, 237); paint-order: fill;" d="M 129.094 -45.911 L 123.802 -43.289 L 123.802 -48.531 L 129.094 -45.911 Z" transform="matrix(-1, 0, 0, -1, 252.895996, -91.82)"/>
    <path style="stroke: rgb(0, 0, 0); stroke-opacity: 0; stroke-width: 0px; stroke-miterlimit: 0; fill: rgb(186, 0, 146);" d="M 123.802 -43.265 L 118.398 -40.691 L 118.398 -45.901 L 123.802 -43.265 Z" transform="matrix(-1, 0, 0, -1, 242.200005, -86.592003)"/>
    <path style="stroke: rgb(0, 0, 0); stroke-width: 0px; stroke-opacity: 0; stroke-miterlimit: 0; fill: rgb(102, 176, 29);" d="M 120.143 -43.412 L 120.208 -35.71 L 123.898 -33.877 L 123.893 -45.802 L 111.891 -51.718 L 111.855 -47.505 L 120.143 -43.412 Z" transform="matrix(-1, 0, 0, -1, 235.753006, -85.594997)"/>
  </g>
</svg>