<?xml version="1.0" encoding="utf-8"?>
<svg viewBox="-105.736 -20.714 24 24" xmlns="http://www.w3.org/2000/svg">
  <g transform="matrix(1, 0, 0, 1, -138.588013, -26.343176)">
    <path style="stroke: rgb(0, 0, 0); stroke-miterlimit: 1; stroke-width: 0px; fill: rgb(98, 163, 45);" d="M 53.079 21.261 L 53.112 13.573 L 56.835 11.724 L 56.83 23.649 L 44.798 29.629 L 44.872 25.352 L 53.079 21.261 Z"/>
    <path style="stroke: rgb(0, 0, 0); stroke-miterlimit: 1; stroke-width: 0px; fill: rgb(109, 186, 33);" d="M 41.14 20.078 L 41.172 27.763 L 44.895 29.613 L 44.89 17.688 L 32.955 11.739 L 32.852 15.985 L 41.14 20.078 Z" transform="matrix(-1, 0, 0, -1, 77.747002, 41.352001)"/>
    <path style="stroke: rgb(0, 0, 0); stroke-miterlimit: 1; stroke-width: 0px; fill: rgb(133, 214, 51);" d="M 44.626 9.427 L 36.496 13.578 L 32.859 11.747 L 44.771 5.629 L 56.852 11.703 L 53.136 13.582 L 44.626 9.427 Z"/>
    <path style="stroke: rgb(0, 0, 0); stroke-width: 0px; stroke-miterlimit: 0; fill: rgb(75, 73, 73);" d="M 44.73 12.234 L 39.415 14.844 L 39.431 19.873 L 36.584 21.282 L 36.537 13.557 L 44.705 9.392 L 44.73 12.234 Z"/>
    <path style="stroke: rgb(0, 0, 0); stroke-width: 0px; stroke-miterlimit: 0; stroke-opacity: 0; fill: rgb(88, 87, 87);" d="M 44.81 22.746 L 50.083 20.172 L 50.083 19.904 L 53.114 21.254 L 44.889 25.367 L 36.554 21.268 L 39.423 19.839 L 39.422 20.125 L 44.81 22.746 Z"/>
    <path style="stroke: rgb(0, 0, 0); stroke-opacity: 0; stroke-width: 0px; stroke-miterlimit: 0; fill: rgb(105, 185, 220);" d="M 50.09 20.168 L 44.798 17.546 L 44.798 22.757 L 50.09 20.168 Z"/>
    <path style="stroke: rgb(0, 0, 0); stroke-opacity: 0; stroke-width: 0px; stroke-miterlimit: 0; fill: rgb(186, 0, 146);" d="M 44.799 20.192 L 39.395 22.766 L 39.395 17.556 L 44.799 20.192 Z" transform="matrix(-1, 0, 0, -1, 84.194, 40.322001)"/>
    <path style="stroke: rgb(0, 0, 0); stroke-opacity: 0; stroke-width: 0px; stroke-miterlimit: 0; fill: rgb(255, 0, 0);" d="M 44.8 17.557 L 39.414 14.84 L 39.414 20.13 L 44.8 17.557 Z"/>
    <path style="stroke: rgb(0, 0, 0); stroke-opacity: 0; stroke-width: 0px; stroke-miterlimit: 0; fill: rgb(101, 197, 237);" d="M 50.091 17.546 L 44.799 20.168 L 44.799 14.926 L 50.091 17.546 Z" transform="matrix(-1, 0, 0, -1, 94.889999, 35.093999)"/>
    <path style="stroke: rgb(0, 0, 0); stroke-opacity: 0; stroke-width: 0px; stroke-miterlimit: 0; fill: rgb(226, 196, 0);" d="M 45.539 15.024 L 40.748 12.671 L 40.729 18.666 L 45.539 15.024 Z" transform="matrix(0.444718, 0.895671, -0.895671, 0.444718, 37.985355, -29.933423)"/>
    <path style="stroke: rgb(0, 0, 0); stroke-opacity: 0; stroke-width: 0px; stroke-miterlimit: 0; fill: rgb(230, 157, 12);" d="M 48.776 16.292 L 44.013 18.698 L 44.032 12.672 L 48.776 16.292 Z" transform="matrix(-0.444718, 0.895671, -0.895671, -0.444718, 81.075561, -18.893794)"/>
    <path style="stroke: rgb(0, 0, 0); stroke-width: 0px; stroke-miterlimit: 0; fill: rgb(81, 80, 80);" d="M 53.103 18.44 L 47.754 15.721 L 47.74 10.723 L 44.731 9.393 L 44.685 17.07 L 53.142 21.266 L 53.103 18.44 Z" transform="matrix(-1, 0, 0, -1, 97.827, 30.659)"/>
  </g>
</svg>